# xmcd CD database file
#
# Track frame offsets:
#	150
#	17899
#	41079
#	68073
#	95289
#	123185
#	155401
#	177923
#	216930
#	240606
#	278462
#	299341
#	318816
#
# Disc length: 4619 seconds
#
# Revision: 0
# Processed by: cddbd v1.5.2PL0 Copyright (c) Steve Scherf et al.
# Submitted via: CDex 1.70beta2
#
DISCID=af12090d
DTITLE=Helge Schneider - Akopalüze Nau!!!
DYEAR=2007
DGENRE=Jazz
TTITLE0=Blues
TTITLE1=Kaktist
TTITLE2=Die Trompeten von Mexiko
TTITLE3=Der liebe Gott
TTITLE4=Telefonmann
TTITLE5=Idole
TTITLE6=C Jam Blues
TTITLE7=Siegrid und Rolf
TTITLE8=Fly Me To The Moon
TTITLE9=Chinesische Mauer
TTITLE10=It Don't Mean A Thing
TTITLE11=Udo
TTITLE12=Chanson
EXTD=YEAR: 2007
EXTT0=
EXTT1=
EXTT2=
EXTT3=
EXTT4=
EXTT5=
EXTT6=
EXTT7=
EXTT8=
EXTT9=
EXTT10=
EXTT11=
EXTT12=
PLAYORDER=
